<svg xmlns="http://www.w3.org/2000/svg" viewBox="0 0 63.08 63.08"><defs><style>.cls-1{fill-rule:evenodd;}</style></defs><g id="Capa_2" data-name="Capa 2"><g id="Capa_1-2" data-name="Capa 1"><path class="cls-1" d="M30.11.59a2,2,0,0,1,2.83,0h0l8,8a2,2,0,0,1,.44,2.31,2,2,0,0,1-3.24.56h0L33.53,6.83V22a2,2,0,1,1-4,.05V6.83L25,11.38a2,2,0,1,1-2.87-2.79h0Zm3.42,40.53V56.24l4.55-4.55A2,2,0,1,1,41,54.49l-8,8a2,2,0,0,1-2.83,0h0l-8-8A2,2,0,1,1,25,51.66l4.58,4.58V41.07a2,2,0,1,1,4,0ZM.59,32.69a2,2,0,0,1,0-2.83h0l8-8a2,2,0,1,1,2.87,2.79L6.83,29.28H22a2,2,0,1,1,.05,4H6.83l4.55,4.54a2,2,0,1,1-2.79,2.87h0Zm40.53-3.41H56.24l-4.55-4.55a2,2,0,0,1-.44-2.31,2,2,0,0,1,3.24-.56h0l8,8a2,2,0,0,1,0,2.83h0l-8,8a2,2,0,1,1-2.86-2.8l4.58-4.58H41.07a2,2,0,1,1,0-4Z"/></g></g></svg>