<svg xmlns="http://www.w3.org/2000/svg" viewBox="0 0 136.41 34.54"><defs><style>.cls-1{fill:#ed2c41;}.cls-2{fill:#fff;}.cls-3{fill:#4d4d4d;opacity:0.3;isolation:isolate;}</style></defs><g id="Capa_2" data-name="Capa 2"><g id="Capa_1-2" data-name="Capa 1"><g id="_ed2c41ff" data-name="#ed2c41ff"><path class="cls-1" d="M15.75.09A17.93,17.93,0,0,1,26.23,2.23a17.33,17.33,0,0,1,8,9.53,17,17,0,0,1,0,11,17.35,17.35,0,0,1-7.06,9,17.53,17.53,0,0,1-9.77,2.77A17.49,17.49,0,0,1,5,29.37,17.06,17.06,0,0,1,2.71,8.05a17.59,17.59,0,0,1,13-8m-4,1.59A12.41,12.41,0,0,0,5.26,5.05,12.17,12.17,0,0,0,4,21.2a12.69,12.69,0,0,0,16,3.54,12.39,12.39,0,0,0,5.89-6.65,12.16,12.16,0,0,0,0-8.61,12.44,12.44,0,0,0-6.35-6.8A12.79,12.79,0,0,0,11.78,1.68Z"/></g><g id="_ffffffff" data-name="#ffffffff"><path class="cls-2" d="M42.61,3.05h4.14v25.5h7.13v3.36H42.61Q42.61,17.48,42.61,3.05Z"/><path class="cls-2" d="M56.78,3.05h4.14V31.9H56.78Z"/><path class="cls-2" d="M66.17,3.05c1.46,0,2.92,0,4.38,0q2.94,10.06,5.87,20.13c0-6.71,0-13.42,0-20.13,1.27,0,2.55,0,3.82,0q0,14.43,0,28.85c-1.4,0-2.81,0-4.21,0Q73,21.55,70,11.17C70,18.08,70,25,70,31.9H66.17Q66.17,17.48,66.17,3.05Z"/><path class="cls-2" d="M89.05,3.07c1.45,0,2.9,0,4.35,0A6.29,6.29,0,0,1,97,3.81a3.5,3.5,0,0,1,1.4,2.88c0,7.18,0,14.36,0,21.53a3.76,3.76,0,0,1-1,2.59,4.12,4.12,0,0,1-3,1.1c-2,0-3.91,0-5.87,0A4.48,4.48,0,0,1,86,31.08a3.69,3.69,0,0,1-1.24-2.86V6.69A3.61,3.61,0,0,1,86,3.89a5.11,5.11,0,0,1,3-.82m.37,3.51a.68.68,0,0,0-.42.51,11.06,11.06,0,0,0-.1,2c0,5.95,0,11.9,0,17.85,0,.53-.06,1.33.6,1.52a21.27,21.27,0,0,0,3.29.08c.47-.05,1.16,0,1.36-.51a13.09,13.09,0,0,0,.13-2.73c0-5.71,0-11.43,0-17.14A3,3,0,0,0,94,6.77c-.42-.36-1-.26-1.55-.31A17.34,17.34,0,0,0,89.42,6.58Z"/><path class="cls-2" d="M107.08,3.07c1.45,0,2.91,0,4.36,0a6.56,6.56,0,0,1,3.52.69,3.48,3.48,0,0,1,1.5,2.94V28.22a3.8,3.8,0,0,1-.94,2.59,4.12,4.12,0,0,1-3,1.1c-2,0-3.93,0-5.89,0a4.51,4.51,0,0,1-2.68-.84,3.64,3.64,0,0,1-1.23-2.84V6.68a3.59,3.59,0,0,1,1.3-2.8,5.11,5.11,0,0,1,3-.81m.39,3.51c-.62.26-.47,1-.53,1.58q0,9.39,0,18.78c0,.52-.06,1.31.59,1.5a19.85,19.85,0,0,0,3.18.1c.48-.06,1.07,0,1.42-.37a7.61,7.61,0,0,0,.19-2.33V8.15a3,3,0,0,0-.25-1.38c-.43-.36-1-.26-1.56-.31A18.07,18.07,0,0,0,107.47,6.58Z"/><path class="cls-2" d="M121.2,3.05c3,0,6,0,9,0a5.85,5.85,0,0,1,3.26.74,3.53,3.53,0,0,1,1.43,2.89q0,5,0,10a3.67,3.67,0,0,1-1.31,2.86,4.11,4.11,0,0,1-1.74.72c1.53,3.89,3,7.79,4.54,11.69h-4.52c-1.44-3.88-2.89-7.76-4.32-11.64h-2.23V31.9H121.2V3.05m4.14,3.41V17c1.56,0,3.13.08,4.68-.08.77-.06.72-1,.75-1.51,0-2.48,0-4.95,0-7.42,0-.54,0-1.35-.73-1.4C128.47,6.38,126.9,6.49,125.34,6.46Z"/></g><g id="_4d4d4d4d" data-name="#4d4d4d4d"><path class="cls-3" d="M11.68,3.6A10.88,10.88,0,0,1,19.84,5a11.2,11.2,0,0,1,3.48,3.54,12.9,12.9,0,0,0-7.9,1.14,12.5,12.5,0,0,0-5.88,6.1,12.14,12.14,0,0,0-.83,7.16A10.63,10.63,0,0,1,4,17.16a10.38,10.38,0,0,1,.91-8.63A10.7,10.7,0,0,1,11.68,3.6Z"/></g></g></g></svg>